<svg xmlns="http://www.w3.org/2000/svg" xmlns:xlink="http://www.w3.org/1999/xlink" width="150" zoomAndPan="magnify" viewBox="0 0 112.5 112.499997" height="150" preserveAspectRatio="xMidYMid meet" version="1.0"><defs><g/><clipPath id="id1"><path d="M 0 0 L 112.003906 0 L 112.003906 39 L 0 39 Z M 0 0 " clip-rule="nonzero"/></clipPath><clipPath id="id2"><path d="M 0 70 L 112.003906 70 L 112.003906 112.003906 L 0 112.003906 Z M 0 70 " clip-rule="nonzero"/></clipPath></defs><g clip-path="url(#id1)"><path fill="#000000" d="M 112.5 38.488281 L 110.4375 38.488281 L 110.4375 2.0625 L 2.0625 2.0625 L 2.0625 38.488281 L 0 38.488281 L 0 0 L 112.5 0 L 112.5 38.488281 " fill-opacity="1" fill-rule="nonzero"/></g><g clip-path="url(#id2)"><path fill="#000000" d="M 112.5 112.5 L 0 112.5 L 0 70.78125 L 2.0625 70.78125 L 2.0625 110.4375 L 110.4375 110.4375 L 110.4375 70.78125 L 112.5 70.78125 L 112.5 112.5 " fill-opacity="1" fill-rule="nonzero"/></g><g fill="#000000" fill-opacity="1"><g transform="translate(23.596773, 60.775223)"><g><path d="M 8.125 1.78125 L 6.953125 0.015625 C 6.617188 0.078125 6.28125 0.109375 5.9375 0.109375 C 4.945312 0.109375 4.03125 -0.125 3.1875 -0.59375 C 2.351562 -1.0625 1.691406 -1.707031 1.203125 -2.53125 C 0.722656 -3.363281 0.484375 -4.304688 0.484375 -5.359375 C 0.484375 -6.398438 0.722656 -7.332031 1.203125 -8.15625 C 1.691406 -8.988281 2.351562 -9.632812 3.1875 -10.09375 C 4.03125 -10.5625 4.945312 -10.796875 5.9375 -10.796875 C 6.945312 -10.796875 7.863281 -10.5625 8.6875 -10.09375 C 9.519531 -9.632812 10.175781 -8.988281 10.65625 -8.15625 C 11.144531 -7.332031 11.390625 -6.398438 11.390625 -5.359375 C 11.390625 -4.484375 11.210938 -3.675781 10.859375 -2.9375 C 10.503906 -2.195312 10.019531 -1.578125 9.40625 -1.078125 L 11.65625 1.78125 Z M 3.5 -5.359375 C 3.5 -4.515625 3.710938 -3.847656 4.140625 -3.359375 C 4.578125 -2.878906 5.175781 -2.640625 5.9375 -2.640625 C 6.695312 -2.640625 7.296875 -2.882812 7.734375 -3.375 C 8.171875 -3.863281 8.390625 -4.523438 8.390625 -5.359375 C 8.390625 -6.203125 8.171875 -6.863281 7.734375 -7.34375 C 7.296875 -7.832031 6.695312 -8.078125 5.9375 -8.078125 C 5.175781 -8.078125 4.578125 -7.832031 4.140625 -7.34375 C 3.710938 -6.863281 3.5 -6.203125 3.5 -5.359375 Z M 3.5 -5.359375 "/></g></g></g><g fill="#000000" fill-opacity="1"><g transform="translate(35.478342, 60.775223)"><g><path d="M 6.234375 0 L 4.109375 -3.921875 L 3.796875 -3.921875 L 3.796875 0 L 0.84375 0 L 0.84375 -10.625 L 5.5 -10.625 C 6.351562 -10.625 7.078125 -10.472656 7.671875 -10.171875 C 8.265625 -9.878906 8.710938 -9.472656 9.015625 -8.953125 C 9.316406 -8.441406 9.46875 -7.863281 9.46875 -7.21875 C 9.46875 -6.5 9.269531 -5.863281 8.875 -5.3125 C 8.476562 -4.769531 7.894531 -4.378906 7.125 -4.140625 L 9.53125 0 Z M 3.796875 -5.9375 L 5.265625 -5.9375 C 5.660156 -5.9375 5.957031 -6.03125 6.15625 -6.21875 C 6.363281 -6.414062 6.46875 -6.695312 6.46875 -7.0625 C 6.46875 -7.394531 6.363281 -7.660156 6.15625 -7.859375 C 5.945312 -8.054688 5.648438 -8.15625 5.265625 -8.15625 L 3.796875 -8.15625 Z M 3.796875 -5.9375 "/></g></g></g><g fill="#000000" fill-opacity="1"><g transform="translate(45.444995, 60.775223)"><g/></g></g><g fill="#000000" fill-opacity="1"><g transform="translate(48.324928, 60.775223)"><g><path d="M 0.484375 -5.34375 C 0.484375 -6.382812 0.703125 -7.3125 1.140625 -8.125 C 1.578125 -8.945312 2.195312 -9.585938 3 -10.046875 C 3.800781 -10.503906 4.726562 -10.734375 5.78125 -10.734375 C 7.101562 -10.734375 8.21875 -10.378906 9.125 -9.671875 C 10.03125 -8.960938 10.613281 -8 10.875 -6.78125 L 7.6875 -6.78125 C 7.5 -7.1875 7.234375 -7.492188 6.890625 -7.703125 C 6.554688 -7.910156 6.171875 -8.015625 5.734375 -8.015625 C 5.046875 -8.015625 4.5 -7.769531 4.09375 -7.28125 C 3.6875 -6.800781 3.484375 -6.15625 3.484375 -5.34375 C 3.484375 -4.507812 3.6875 -3.847656 4.09375 -3.359375 C 4.5 -2.878906 5.046875 -2.640625 5.734375 -2.640625 C 6.171875 -2.640625 6.554688 -2.742188 6.890625 -2.953125 C 7.234375 -3.160156 7.5 -3.46875 7.6875 -3.875 L 10.875 -3.875 C 10.613281 -2.65625 10.03125 -1.691406 9.125 -0.984375 C 8.21875 -0.273438 7.101562 0.078125 5.78125 0.078125 C 4.726562 0.078125 3.800781 -0.148438 3 -0.609375 C 2.195312 -1.066406 1.578125 -1.703125 1.140625 -2.515625 C 0.703125 -3.335938 0.484375 -4.28125 0.484375 -5.34375 Z M 0.484375 -5.34375 "/></g></g></g><g fill="#000000" fill-opacity="1"><g transform="translate(59.754154, 60.775223)"><g><path d="M 4.78125 0.109375 C 3.9375 0.109375 3.175781 -0.0664062 2.5 -0.421875 C 1.832031 -0.773438 1.304688 -1.273438 0.921875 -1.921875 C 0.546875 -2.578125 0.359375 -3.347656 0.359375 -4.234375 C 0.359375 -5.109375 0.550781 -5.875 0.9375 -6.53125 C 1.320312 -7.1875 1.847656 -7.6875 2.515625 -8.03125 C 3.191406 -8.382812 3.953125 -8.5625 4.796875 -8.5625 C 5.640625 -8.5625 6.394531 -8.382812 7.0625 -8.03125 C 7.726562 -7.6875 8.253906 -7.1875 8.640625 -6.53125 C 9.035156 -5.875 9.234375 -5.109375 9.234375 -4.234375 C 9.234375 -3.359375 9.035156 -2.59375 8.640625 -1.9375 C 8.253906 -1.28125 7.722656 -0.773438 7.046875 -0.421875 C 6.378906 -0.0664062 5.625 0.109375 4.78125 0.109375 Z M 4.78125 -2.453125 C 5.1875 -2.453125 5.53125 -2.601562 5.8125 -2.90625 C 6.09375 -3.21875 6.234375 -3.660156 6.234375 -4.234375 C 6.234375 -4.804688 6.09375 -5.242188 5.8125 -5.546875 C 5.53125 -5.847656 5.191406 -6 4.796875 -6 C 4.390625 -6 4.050781 -5.847656 3.78125 -5.546875 C 3.507812 -5.242188 3.375 -4.804688 3.375 -4.234375 C 3.375 -3.648438 3.503906 -3.207031 3.765625 -2.90625 C 4.023438 -2.601562 4.363281 -2.453125 4.78125 -2.453125 Z M 4.78125 -2.453125 "/></g></g></g><g fill="#000000" fill-opacity="1"><g transform="translate(69.343849, 60.775223)"><g><path d="M 0.359375 -4.234375 C 0.359375 -5.109375 0.515625 -5.875 0.828125 -6.53125 C 1.148438 -7.1875 1.585938 -7.6875 2.140625 -8.03125 C 2.691406 -8.382812 3.304688 -8.5625 3.984375 -8.5625 C 4.523438 -8.5625 5.007812 -8.445312 5.4375 -8.21875 C 5.863281 -8 6.195312 -7.691406 6.4375 -7.296875 L 6.4375 -11.15625 L 9.40625 -11.15625 L 9.40625 0 L 6.4375 0 L 6.4375 -1.171875 C 6.207031 -0.785156 5.878906 -0.472656 5.453125 -0.234375 C 5.035156 -0.00390625 4.539062 0.109375 3.96875 0.109375 C 3.289062 0.109375 2.675781 -0.0664062 2.125 -0.421875 C 1.582031 -0.773438 1.148438 -1.28125 0.828125 -1.9375 C 0.515625 -2.59375 0.359375 -3.359375 0.359375 -4.234375 Z M 6.453125 -4.234375 C 6.453125 -4.773438 6.300781 -5.203125 6 -5.515625 C 5.707031 -5.828125 5.347656 -5.984375 4.921875 -5.984375 C 4.472656 -5.984375 4.101562 -5.828125 3.8125 -5.515625 C 3.519531 -5.210938 3.375 -4.785156 3.375 -4.234375 C 3.375 -3.691406 3.519531 -3.257812 3.8125 -2.9375 C 4.101562 -2.625 4.472656 -2.46875 4.921875 -2.46875 C 5.347656 -2.46875 5.707031 -2.625 6 -2.9375 C 6.300781 -3.25 6.453125 -3.679688 6.453125 -4.234375 Z M 6.453125 -4.234375 "/></g></g></g><g fill="#000000" fill-opacity="1"><g transform="translate(79.596989, 60.775223)"><g><path d="M 8.921875 -4.328125 C 8.921875 -4.097656 8.90625 -3.867188 8.875 -3.640625 L 3.28125 -3.640625 C 3.3125 -3.171875 3.441406 -2.820312 3.671875 -2.59375 C 3.898438 -2.375 4.1875 -2.265625 4.53125 -2.265625 C 5.03125 -2.265625 5.382812 -2.484375 5.59375 -2.921875 L 8.75 -2.921875 C 8.613281 -2.335938 8.359375 -1.816406 7.984375 -1.359375 C 7.609375 -0.898438 7.132812 -0.539062 6.5625 -0.28125 C 5.988281 -0.0195312 5.351562 0.109375 4.65625 0.109375 C 3.820312 0.109375 3.082031 -0.0664062 2.4375 -0.421875 C 1.789062 -0.773438 1.28125 -1.273438 0.90625 -1.921875 C 0.539062 -2.578125 0.359375 -3.347656 0.359375 -4.234375 C 0.359375 -5.117188 0.539062 -5.882812 0.90625 -6.53125 C 1.269531 -7.1875 1.773438 -7.6875 2.421875 -8.03125 C 3.066406 -8.382812 3.8125 -8.5625 4.65625 -8.5625 C 5.488281 -8.5625 6.226562 -8.390625 6.875 -8.046875 C 7.519531 -7.703125 8.019531 -7.210938 8.375 -6.578125 C 8.738281 -5.941406 8.921875 -5.191406 8.921875 -4.328125 Z M 5.90625 -5.0625 C 5.90625 -5.425781 5.785156 -5.710938 5.546875 -5.921875 C 5.304688 -6.128906 5.003906 -6.234375 4.640625 -6.234375 C 4.273438 -6.234375 3.976562 -6.132812 3.75 -5.9375 C 3.519531 -5.738281 3.367188 -5.445312 3.296875 -5.0625 Z M 5.90625 -5.0625 "/></g></g></g></svg>