<svg xmlns="http://www.w3.org/2000/svg" xmlns:xlink="http://www.w3.org/1999/xlink" width="150" zoomAndPan="magnify" viewBox="0 0 112.5 112.499997" height="150" preserveAspectRatio="xMidYMid meet" version="1.0"><defs><clipPath id="id1"><path d="M 11.25 11.25 L 99.75 11.25 L 99.75 99.75 L 11.25 99.75 Z M 11.25 11.25 " clip-rule="nonzero"/></clipPath><clipPath id="id2"><path d="M 0 0 L 112.003906 0 L 112.003906 112.003906 L 0 112.003906 Z M 0 0 " clip-rule="nonzero"/></clipPath></defs><g clip-path="url(#id1)"><path fill="#ffffff" d="M 11.25 11.25 L 99.75 11.25 L 99.75 99.75 L 11.25 99.75 L 11.25 11.25 " fill-opacity="1" fill-rule="nonzero"/></g><g clip-path="url(#id2)"><path fill="#000000" d="M 56.25 0 C 25.234375 0 0 25.234375 0 56.25 C 0 87.265625 25.234375 112.5 56.25 112.5 C 87.265625 112.5 112.5 87.265625 112.5 56.25 C 112.5 25.234375 87.265625 0 56.25 0 Z M 56.25 14.675781 C 65.691406 14.675781 73.371094 22.351562 73.371094 31.792969 C 73.371094 41.234375 65.691406 48.914062 56.25 48.914062 C 46.808594 48.914062 39.128906 41.234375 39.128906 31.792969 C 39.128906 22.351562 46.808594 14.675781 56.25 14.675781 Z M 85.597656 88.042969 L 26.902344 88.042969 C 25.550781 88.042969 24.457031 86.949219 24.457031 85.597656 C 24.457031 68.066406 38.71875 53.804688 56.25 53.804688 C 73.78125 53.804688 88.042969 68.066406 88.042969 85.597656 C 88.042969 86.949219 86.949219 88.042969 85.597656 88.042969 Z M 85.597656 88.042969 " fill-opacity="1" fill-rule="nonzero"/></g></svg>