<svg xmlns="http://www.w3.org/2000/svg" xmlns:xlink="http://www.w3.org/1999/xlink" width="500" zoomAndPan="magnify" viewBox="0 0 375 374.999991" height="500" preserveAspectRatio="xMidYMid meet" version="1.0"><defs><g/><clipPath id="id1"><path d="M 125.332031 125.332031 L 249.832031 125.332031 L 249.832031 168 L 125.332031 168 Z M 125.332031 125.332031 " clip-rule="nonzero"/></clipPath><clipPath id="id2"><path d="M 125.332031 203 L 249.832031 203 L 249.832031 249.832031 L 125.332031 249.832031 Z M 125.332031 203 " clip-rule="nonzero"/></clipPath><clipPath id="id3"><path d="M 170.296875 337.5 L 204.703125 337.5 L 204.703125 367.707031 L 170.296875 367.707031 Z M 170.296875 337.5 " clip-rule="nonzero"/></clipPath></defs><path fill="#cd77e6" d="M 187.5 0 C 83.945312 0 0 83.945312 0 187.5 C 0 291.054688 83.945312 375 187.5 375 C 291.054688 375 375 291.054688 375 187.5 C 375 83.945312 291.054688 0 187.5 0 " fill-opacity="1" fill-rule="nonzero"/><g clip-path="url(#id1)"><path fill="#000000" d="M 249.832031 167.925781 L 247.546875 167.925781 L 247.546875 127.617188 L 127.617188 127.617188 L 127.617188 167.925781 L 125.332031 167.925781 L 125.332031 125.332031 L 249.832031 125.332031 L 249.832031 167.925781 " fill-opacity="1" fill-rule="nonzero"/></g><g clip-path="url(#id2)"><path fill="#000000" d="M 249.832031 249.832031 L 125.332031 249.832031 L 125.332031 203.664062 L 127.617188 203.664062 L 127.617188 247.546875 L 247.546875 247.546875 L 247.546875 203.664062 L 249.832031 203.664062 L 249.832031 249.832031 " fill-opacity="1" fill-rule="nonzero"/></g><g clip-path="url(#id3)"><path fill="#eeb3ff" d="M 170.296875 346.410156 C 170.296875 356.003906 187.5 367.707031 187.5 367.707031 C 187.5 367.707031 204.625 355.921875 204.703125 346.410156 C 204.703125 341.5 200.703125 337.5 195.796875 337.5 C 192.027344 337.5 188.78125 339.917969 187.5 343.238281 C 186.21875 339.917969 182.972656 337.5 179.203125 337.5 C 174.296875 337.5 170.296875 341.5 170.296875 346.410156 " fill-opacity="1" fill-rule="nonzero"/></g><g fill="#000000" fill-opacity="1"><g transform="translate(151.410755, 192.50139)"><g><path d="M 8.984375 1.96875 L 7.6875 0.015625 C 7.320312 0.078125 6.945312 0.109375 6.5625 0.109375 C 5.46875 0.109375 4.457031 -0.144531 3.53125 -0.65625 C 2.613281 -1.175781 1.882812 -1.894531 1.34375 -2.8125 C 0.800781 -3.726562 0.53125 -4.765625 0.53125 -5.921875 C 0.53125 -7.078125 0.800781 -8.113281 1.34375 -9.03125 C 1.882812 -9.945312 2.613281 -10.660156 3.53125 -11.171875 C 4.457031 -11.679688 5.46875 -11.9375 6.5625 -11.9375 C 7.675781 -11.9375 8.691406 -11.679688 9.609375 -11.171875 C 10.523438 -10.660156 11.25 -9.945312 11.78125 -9.03125 C 12.320312 -8.113281 12.59375 -7.078125 12.59375 -5.921875 C 12.59375 -4.953125 12.394531 -4.054688 12 -3.234375 C 11.613281 -2.421875 11.082031 -1.742188 10.40625 -1.203125 L 12.890625 1.96875 Z M 3.875 -5.921875 C 3.875 -4.992188 4.109375 -4.257812 4.578125 -3.71875 C 5.054688 -3.1875 5.71875 -2.921875 6.5625 -2.921875 C 7.394531 -2.921875 8.050781 -3.191406 8.53125 -3.734375 C 9.019531 -4.273438 9.265625 -5.003906 9.265625 -5.921875 C 9.265625 -6.847656 9.019531 -7.582031 8.53125 -8.125 C 8.050781 -8.664062 7.394531 -8.9375 6.5625 -8.9375 C 5.71875 -8.9375 5.054688 -8.664062 4.578125 -8.125 C 4.109375 -7.582031 3.875 -6.847656 3.875 -5.921875 Z M 3.875 -5.921875 "/></g></g></g><g fill="#000000" fill-opacity="1"><g transform="translate(164.542591, 192.50139)"><g><path d="M 6.890625 0 L 4.546875 -4.328125 L 4.203125 -4.328125 L 4.203125 0 L 0.9375 0 L 0.9375 -11.75 L 6.078125 -11.75 C 7.023438 -11.75 7.828125 -11.582031 8.484375 -11.25 C 9.140625 -10.925781 9.632812 -10.476562 9.96875 -9.90625 C 10.300781 -9.332031 10.46875 -8.691406 10.46875 -7.984375 C 10.46875 -7.179688 10.25 -6.476562 9.8125 -5.875 C 9.375 -5.269531 8.734375 -4.835938 7.890625 -4.578125 L 10.53125 0 Z M 4.203125 -6.5625 L 5.8125 -6.5625 C 6.257812 -6.5625 6.59375 -6.664062 6.8125 -6.875 C 7.039062 -7.09375 7.15625 -7.398438 7.15625 -7.796875 C 7.15625 -8.179688 7.039062 -8.476562 6.8125 -8.6875 C 6.582031 -8.90625 6.25 -9.015625 5.8125 -9.015625 L 4.203125 -9.015625 Z M 4.203125 -6.5625 "/></g></g></g><g fill="#000000" fill-opacity="1"><g transform="translate(175.55801, 192.50139)"><g/></g></g><g fill="#000000" fill-opacity="1"><g transform="translate(178.740991, 192.50139)"><g><path d="M 0.53125 -5.90625 C 0.53125 -7.0625 0.769531 -8.09375 1.25 -9 C 1.738281 -9.90625 2.425781 -10.609375 3.3125 -11.109375 C 4.207031 -11.617188 5.234375 -11.875 6.390625 -11.875 C 7.859375 -11.875 9.09375 -11.476562 10.09375 -10.6875 C 11.09375 -9.90625 11.734375 -8.84375 12.015625 -7.5 L 8.5 -7.5 C 8.289062 -7.945312 8 -8.285156 7.625 -8.515625 C 7.25 -8.753906 6.816406 -8.875 6.328125 -8.875 C 5.578125 -8.875 4.972656 -8.601562 4.515625 -8.0625 C 4.066406 -7.519531 3.84375 -6.800781 3.84375 -5.90625 C 3.84375 -4.988281 4.066406 -4.257812 4.515625 -3.71875 C 4.972656 -3.1875 5.578125 -2.921875 6.328125 -2.921875 C 6.816406 -2.921875 7.25 -3.035156 7.625 -3.265625 C 8 -3.503906 8.289062 -3.84375 8.5 -4.28125 L 12.015625 -4.28125 C 11.734375 -2.9375 11.09375 -1.875 10.09375 -1.09375 C 9.09375 -0.3125 7.859375 0.078125 6.390625 0.078125 C 5.234375 0.078125 4.207031 -0.171875 3.3125 -0.671875 C 2.425781 -1.179688 1.738281 -1.890625 1.25 -2.796875 C 0.769531 -3.703125 0.53125 -4.738281 0.53125 -5.90625 Z M 0.53125 -5.90625 "/></g></g></g><g fill="#000000" fill-opacity="1"><g transform="translate(191.372884, 192.50139)"><g><path d="M 5.28125 0.109375 C 4.351562 0.109375 3.519531 -0.0820312 2.78125 -0.46875 C 2.039062 -0.851562 1.457031 -1.40625 1.03125 -2.125 C 0.613281 -2.851562 0.40625 -3.707031 0.40625 -4.6875 C 0.40625 -5.65625 0.617188 -6.5 1.046875 -7.21875 C 1.472656 -7.9375 2.054688 -8.488281 2.796875 -8.875 C 3.535156 -9.269531 4.367188 -9.46875 5.296875 -9.46875 C 6.234375 -9.46875 7.070312 -9.269531 7.8125 -8.875 C 8.550781 -8.488281 9.132812 -7.9375 9.5625 -7.21875 C 9.988281 -6.5 10.203125 -5.65625 10.203125 -4.6875 C 10.203125 -3.71875 9.988281 -2.867188 9.5625 -2.140625 C 9.132812 -1.410156 8.546875 -0.851562 7.796875 -0.46875 C 7.054688 -0.0820312 6.21875 0.109375 5.28125 0.109375 Z M 5.28125 -2.71875 C 5.738281 -2.71875 6.117188 -2.882812 6.421875 -3.21875 C 6.734375 -3.5625 6.890625 -4.050781 6.890625 -4.6875 C 6.890625 -5.320312 6.734375 -5.804688 6.421875 -6.140625 C 6.117188 -6.472656 5.742188 -6.640625 5.296875 -6.640625 C 4.859375 -6.640625 4.488281 -6.472656 4.1875 -6.140625 C 3.882812 -5.804688 3.734375 -5.320312 3.734375 -4.6875 C 3.734375 -4.039062 3.875 -3.550781 4.15625 -3.21875 C 4.445312 -2.882812 4.820312 -2.71875 5.28125 -2.71875 Z M 5.28125 -2.71875 "/></g></g></g><g fill="#000000" fill-opacity="1"><g transform="translate(201.971678, 192.50139)"><g><path d="M 0.40625 -4.6875 C 0.40625 -5.65625 0.578125 -6.5 0.921875 -7.21875 C 1.273438 -7.9375 1.753906 -8.488281 2.359375 -8.875 C 2.972656 -9.269531 3.65625 -9.46875 4.40625 -9.46875 C 5 -9.46875 5.53125 -9.34375 6 -9.09375 C 6.476562 -8.84375 6.851562 -8.5 7.125 -8.0625 L 7.125 -12.34375 L 10.40625 -12.34375 L 10.40625 0 L 7.125 0 L 7.125 -1.296875 C 6.863281 -0.867188 6.5 -0.523438 6.03125 -0.265625 C 5.5625 -0.015625 5.015625 0.109375 4.390625 0.109375 C 3.640625 0.109375 2.960938 -0.0820312 2.359375 -0.46875 C 1.753906 -0.851562 1.273438 -1.410156 0.921875 -2.140625 C 0.578125 -2.867188 0.40625 -3.71875 0.40625 -4.6875 Z M 7.140625 -4.6875 C 7.140625 -5.28125 6.972656 -5.75 6.640625 -6.09375 C 6.316406 -6.445312 5.914062 -6.625 5.4375 -6.625 C 4.945312 -6.625 4.539062 -6.453125 4.21875 -6.109375 C 3.894531 -5.773438 3.734375 -5.300781 3.734375 -4.6875 C 3.734375 -4.082031 3.894531 -3.601562 4.21875 -3.25 C 4.539062 -2.90625 4.945312 -2.734375 5.4375 -2.734375 C 5.914062 -2.734375 6.316406 -2.90625 6.640625 -3.25 C 6.972656 -3.59375 7.140625 -4.070312 7.140625 -4.6875 Z M 7.140625 -4.6875 "/></g></g></g><g fill="#000000" fill-opacity="1"><g transform="translate(213.30373, 192.50139)"><g><path d="M 9.875 -4.78125 C 9.875 -4.53125 9.851562 -4.273438 9.8125 -4.015625 L 3.640625 -4.015625 C 3.671875 -3.503906 3.8125 -3.125 4.0625 -2.875 C 4.3125 -2.625 4.628906 -2.5 5.015625 -2.5 C 5.554688 -2.5 5.945312 -2.742188 6.1875 -3.234375 L 9.671875 -3.234375 C 9.523438 -2.585938 9.242188 -2.007812 8.828125 -1.5 C 8.410156 -1 7.882812 -0.601562 7.25 -0.3125 C 6.613281 -0.03125 5.914062 0.109375 5.15625 0.109375 C 4.226562 0.109375 3.40625 -0.0820312 2.6875 -0.46875 C 1.96875 -0.851562 1.40625 -1.40625 1 -2.125 C 0.601562 -2.851562 0.40625 -3.707031 0.40625 -4.6875 C 0.40625 -5.664062 0.601562 -6.507812 1 -7.21875 C 1.394531 -7.9375 1.953125 -8.488281 2.671875 -8.875 C 3.390625 -9.269531 4.21875 -9.46875 5.15625 -9.46875 C 6.070312 -9.46875 6.882812 -9.28125 7.59375 -8.90625 C 8.3125 -8.53125 8.867188 -7.988281 9.265625 -7.28125 C 9.671875 -6.570312 9.875 -5.738281 9.875 -4.78125 Z M 6.53125 -5.609375 C 6.53125 -6.003906 6.394531 -6.316406 6.125 -6.546875 C 5.863281 -6.773438 5.535156 -6.890625 5.140625 -6.890625 C 4.734375 -6.890625 4.398438 -6.78125 4.140625 -6.5625 C 3.890625 -6.34375 3.726562 -6.023438 3.65625 -5.609375 Z M 6.53125 -5.609375 "/></g></g></g><g fill="#000000" fill-opacity="1"><g transform="translate(98.84943, 288.835036)"><g><path d="M 9.875 0 L 5.015625 0 L 5.015625 -14.015625 L 0.625 -14.015625 L 0.625 -17.984375 L 14.265625 -17.984375 L 14.265625 -14.015625 L 9.875 -14.015625 Z M 9.875 0 "/></g></g></g><g fill="#000000" fill-opacity="1"><g transform="translate(113.738753, 288.835036)"><g><path d="M 10.4375 0 L 10.4375 -7.609375 C 10.4375 -9.472656 9.882812 -10.40625 8.78125 -10.40625 C 7.988281 -10.40625 7.40625 -10.078125 7.03125 -9.421875 C 6.65625 -8.765625 6.46875 -7.664062 6.46875 -6.125 L 6.46875 0 L 1.65625 0 L 1.65625 -19.15625 L 6.46875 -19.15625 L 6.46875 -16.421875 C 6.46875 -15.191406 6.40625 -13.789062 6.28125 -12.21875 L 6.5 -12.21875 C 6.957031 -12.9375 7.5 -13.441406 8.125 -13.734375 C 8.757812 -14.035156 9.5 -14.1875 10.34375 -14.1875 C 11.894531 -14.1875 13.101562 -13.738281 13.96875 -12.84375 C 14.832031 -11.945312 15.265625 -10.6875 15.265625 -9.0625 L 15.265625 0 Z M 10.4375 0 "/></g></g></g><g fill="#000000" fill-opacity="1"><g transform="translate(130.621524, 288.835036)"><g><path d="M 10.75 0 L 9.828125 -1.84375 L 9.734375 -1.84375 C 9.085938 -1.039062 8.425781 -0.488281 7.75 -0.1875 C 7.082031 0.101562 6.210938 0.25 5.140625 0.25 C 3.828125 0.25 2.789062 -0.140625 2.03125 -0.921875 C 1.28125 -1.710938 0.90625 -2.828125 0.90625 -4.265625 C 0.90625 -5.742188 1.421875 -6.84375 2.453125 -7.5625 C 3.492188 -8.289062 4.992188 -8.703125 6.953125 -8.796875 L 9.28125 -8.875 L 9.28125 -9.0625 C 9.28125 -10.21875 8.710938 -10.796875 7.578125 -10.796875 C 6.554688 -10.796875 5.265625 -10.453125 3.703125 -9.765625 L 2.3125 -12.9375 C 3.9375 -13.769531 5.988281 -14.1875 8.46875 -14.1875 C 10.257812 -14.1875 11.644531 -13.742188 12.625 -12.859375 C 13.601562 -11.972656 14.09375 -10.734375 14.09375 -9.140625 L 14.09375 0 Z M 7.1875 -3.15625 C 7.769531 -3.15625 8.265625 -3.335938 8.671875 -3.703125 C 9.085938 -4.078125 9.296875 -4.554688 9.296875 -5.140625 L 9.296875 -6.234375 L 8.203125 -6.171875 C 6.617188 -6.117188 5.828125 -5.539062 5.828125 -4.4375 C 5.828125 -3.582031 6.28125 -3.15625 7.1875 -3.15625 Z M 7.1875 -3.15625 "/></g></g></g><g fill="#000000" fill-opacity="1"><g transform="translate(146.322993, 288.835036)"><g><path d="M 10.453125 0 L 10.453125 -7.609375 C 10.453125 -8.535156 10.316406 -9.234375 10.046875 -9.703125 C 9.785156 -10.171875 9.363281 -10.40625 8.78125 -10.40625 C 7.96875 -10.40625 7.378906 -10.082031 7.015625 -9.4375 C 6.648438 -8.789062 6.46875 -7.679688 6.46875 -6.109375 L 6.46875 0 L 1.65625 0 L 1.65625 -13.9375 L 5.296875 -13.9375 L 5.890625 -12.21875 L 6.171875 -12.21875 C 6.585938 -12.875 7.15625 -13.363281 7.875 -13.6875 C 8.601562 -14.019531 9.441406 -14.1875 10.390625 -14.1875 C 11.929688 -14.1875 13.128906 -13.738281 13.984375 -12.84375 C 14.835938 -11.945312 15.265625 -10.6875 15.265625 -9.0625 L 15.265625 0 Z M 10.453125 0 "/></g></g></g><g fill="#000000" fill-opacity="1"><g transform="translate(163.205764, 288.835036)"><g><path d="M 6.328125 -7.84375 C 6.910156 -8.769531 7.40625 -9.488281 7.8125 -10 L 10.9375 -13.9375 L 16.3125 -13.9375 L 11.46875 -8.015625 L 16.609375 0 L 11.109375 0 L 8.0625 -5 L 6.5 -3.796875 L 6.5 0 L 1.65625 0 L 1.65625 -19.15625 L 6.5 -19.15625 L 6.5 -11.609375 C 6.5 -10.328125 6.410156 -9.070312 6.234375 -7.84375 Z M 6.328125 -7.84375 "/></g></g></g><g fill="#000000" fill-opacity="1"><g transform="translate(179.817819, 288.835036)"><g><path d="M -0.03125 -13.9375 L 5.046875 -13.9375 L 7.40625 -5.9375 C 7.519531 -5.519531 7.597656 -5.019531 7.640625 -4.4375 L 7.734375 -4.4375 C 7.804688 -5 7.90625 -5.492188 8.03125 -5.921875 L 10.453125 -13.9375 L 15.375 -13.9375 L 9.859375 0.890625 C 9.148438 2.773438 8.28125 4.101562 7.25 4.875 C 6.21875 5.65625 4.875 6.046875 3.21875 6.046875 C 2.582031 6.046875 1.925781 5.976562 1.25 5.84375 L 1.25 2.0625 C 1.6875 2.164062 2.1875 2.21875 2.75 2.21875 C 3.175781 2.21875 3.546875 2.132812 3.859375 1.96875 C 4.179688 1.800781 4.460938 1.566406 4.703125 1.265625 C 4.941406 0.972656 5.195312 0.484375 5.46875 -0.203125 Z M -0.03125 -13.9375 "/></g></g></g><g fill="#000000" fill-opacity="1"><g transform="translate(195.187047, 288.835036)"><g><path d="M 14.984375 -7 C 14.984375 -4.71875 14.367188 -2.9375 13.140625 -1.65625 C 11.910156 -0.382812 10.191406 0.25 7.984375 0.25 C 5.867188 0.25 4.1875 -0.398438 2.9375 -1.703125 C 1.6875 -3.015625 1.0625 -4.78125 1.0625 -7 C 1.0625 -9.269531 1.671875 -11.035156 2.890625 -12.296875 C 4.117188 -13.554688 5.84375 -14.1875 8.0625 -14.1875 C 9.425781 -14.1875 10.632812 -13.894531 11.6875 -13.3125 C 12.738281 -12.726562 13.550781 -11.894531 14.125 -10.8125 C 14.695312 -9.726562 14.984375 -8.457031 14.984375 -7 Z M 5.9375 -7 C 5.9375 -5.800781 6.097656 -4.890625 6.421875 -4.265625 C 6.742188 -3.640625 7.28125 -3.328125 8.03125 -3.328125 C 8.78125 -3.328125 9.304688 -3.640625 9.609375 -4.265625 C 9.921875 -4.890625 10.078125 -5.800781 10.078125 -7 C 10.078125 -8.1875 9.921875 -9.082031 9.609375 -9.6875 C 9.296875 -10.300781 8.765625 -10.609375 8.015625 -10.609375 C 7.273438 -10.609375 6.742188 -10.304688 6.421875 -9.703125 C 6.097656 -9.097656 5.9375 -8.195312 5.9375 -7 Z M 5.9375 -7 "/></g></g></g><g fill="#000000" fill-opacity="1"><g transform="translate(211.245368, 288.835036)"><g><path d="M 11.59375 0 L 10.984375 -1.734375 L 10.703125 -1.734375 C 10.304688 -1.097656 9.75 -0.609375 9.03125 -0.265625 C 8.3125 0.078125 7.46875 0.25 6.5 0.25 C 4.96875 0.25 3.773438 -0.191406 2.921875 -1.078125 C 2.066406 -1.972656 1.640625 -3.234375 1.640625 -4.859375 L 1.640625 -13.9375 L 6.453125 -13.9375 L 6.453125 -6.328125 C 6.453125 -5.410156 6.578125 -4.71875 6.828125 -4.25 C 7.085938 -3.789062 7.515625 -3.5625 8.109375 -3.5625 C 8.941406 -3.5625 9.53125 -3.882812 9.875 -4.53125 C 10.226562 -5.1875 10.40625 -6.289062 10.40625 -7.84375 L 10.40625 -13.9375 L 15.21875 -13.9375 L 15.21875 0 Z M 11.59375 0 "/></g></g></g><g fill="#000000" fill-opacity="1"><g transform="translate(228.128139, 288.835036)"><g/></g></g><g fill="#000000" fill-opacity="1"><g transform="translate(234.674519, 288.835036)"><g><path d="M 6.734375 0 L 1.9375 0 L 1.9375 -17.984375 L 12.578125 -17.984375 L 12.578125 -14.09375 L 6.734375 -14.09375 L 6.734375 -10.65625 L 12.125 -10.65625 L 12.125 -6.75 L 6.734375 -6.75 Z M 6.734375 0 "/></g></g></g><g fill="#000000" fill-opacity="1"><g transform="translate(248.259489, 288.835036)"><g><path d="M 14.984375 -7 C 14.984375 -4.71875 14.367188 -2.9375 13.140625 -1.65625 C 11.910156 -0.382812 10.191406 0.25 7.984375 0.25 C 5.867188 0.25 4.1875 -0.398438 2.9375 -1.703125 C 1.6875 -3.015625 1.0625 -4.78125 1.0625 -7 C 1.0625 -9.269531 1.671875 -11.035156 2.890625 -12.296875 C 4.117188 -13.554688 5.84375 -14.1875 8.0625 -14.1875 C 9.425781 -14.1875 10.632812 -13.894531 11.6875 -13.3125 C 12.738281 -12.726562 13.550781 -11.894531 14.125 -10.8125 C 14.695312 -9.726562 14.984375 -8.457031 14.984375 -7 Z M 5.9375 -7 C 5.9375 -5.800781 6.097656 -4.890625 6.421875 -4.265625 C 6.742188 -3.640625 7.28125 -3.328125 8.03125 -3.328125 C 8.78125 -3.328125 9.304688 -3.640625 9.609375 -4.265625 C 9.921875 -4.890625 10.078125 -5.800781 10.078125 -7 C 10.078125 -8.1875 9.921875 -9.082031 9.609375 -9.6875 C 9.296875 -10.300781 8.765625 -10.609375 8.015625 -10.609375 C 7.273438 -10.609375 6.742188 -10.304688 6.421875 -9.703125 C 6.097656 -9.097656 5.9375 -8.195312 5.9375 -7 Z M 5.9375 -7 "/></g></g></g><g fill="#000000" fill-opacity="1"><g transform="translate(264.317818, 288.835036)"><g><path d="M 10.078125 -14.1875 C 10.492188 -14.1875 10.890625 -14.15625 11.265625 -14.09375 L 11.546875 -14.046875 L 11.109375 -9.5 C 10.710938 -9.59375 10.164062 -9.640625 9.46875 -9.640625 C 8.425781 -9.640625 7.664062 -9.398438 7.1875 -8.921875 C 6.707031 -8.441406 6.46875 -7.753906 6.46875 -6.859375 L 6.46875 0 L 1.65625 0 L 1.65625 -13.9375 L 5.25 -13.9375 L 6 -11.71875 L 6.234375 -11.71875 C 6.628906 -12.457031 7.1875 -13.050781 7.90625 -13.5 C 8.625 -13.957031 9.347656 -14.1875 10.078125 -14.1875 Z M 10.078125 -14.1875 "/></g></g></g><g fill="#000000" fill-opacity="1"><g transform="translate(127.960513, 323.65951)"><g><path d="M 17.21875 -9.375 C 17.21875 -6.375 16.390625 -4.0625 14.734375 -2.4375 C 13.078125 -0.8125 10.753906 0 7.765625 0 L 1.9375 0 L 1.9375 -17.984375 L 8.171875 -17.984375 C 11.054688 -17.984375 13.285156 -17.242188 14.859375 -15.765625 C 16.429688 -14.296875 17.21875 -12.164062 17.21875 -9.375 Z M 12.171875 -9.203125 C 12.171875 -10.847656 11.84375 -12.066406 11.1875 -12.859375 C 10.539062 -13.660156 9.550781 -14.0625 8.21875 -14.0625 L 6.8125 -14.0625 L 6.8125 -3.984375 L 7.890625 -3.984375 C 9.367188 -3.984375 10.453125 -4.410156 11.140625 -5.265625 C 11.828125 -6.128906 12.171875 -7.441406 12.171875 -9.203125 Z M 12.171875 -9.203125 "/></g></g></g><g fill="#000000" fill-opacity="1"><g transform="translate(146.455269, 323.65951)"><g><path d="M 14.984375 -7 C 14.984375 -4.71875 14.367188 -2.9375 13.140625 -1.65625 C 11.910156 -0.382812 10.191406 0.25 7.984375 0.25 C 5.867188 0.25 4.1875 -0.398438 2.9375 -1.703125 C 1.6875 -3.015625 1.0625 -4.78125 1.0625 -7 C 1.0625 -9.269531 1.671875 -11.035156 2.890625 -12.296875 C 4.117188 -13.554688 5.84375 -14.1875 8.0625 -14.1875 C 9.425781 -14.1875 10.632812 -13.894531 11.6875 -13.3125 C 12.738281 -12.726562 13.550781 -11.894531 14.125 -10.8125 C 14.695312 -9.726562 14.984375 -8.457031 14.984375 -7 Z M 5.9375 -7 C 5.9375 -5.800781 6.097656 -4.890625 6.421875 -4.265625 C 6.742188 -3.640625 7.28125 -3.328125 8.03125 -3.328125 C 8.78125 -3.328125 9.304688 -3.640625 9.609375 -4.265625 C 9.921875 -4.890625 10.078125 -5.800781 10.078125 -7 C 10.078125 -8.1875 9.921875 -9.082031 9.609375 -9.6875 C 9.296875 -10.300781 8.765625 -10.609375 8.015625 -10.609375 C 7.273438 -10.609375 6.742188 -10.304688 6.421875 -9.703125 C 6.097656 -9.097656 5.9375 -8.195312 5.9375 -7 Z M 5.9375 -7 "/></g></g></g><g fill="#000000" fill-opacity="1"><g transform="translate(162.51359, 323.65951)"><g><path d="M 10.453125 0 L 10.453125 -7.609375 C 10.453125 -8.535156 10.316406 -9.234375 10.046875 -9.703125 C 9.785156 -10.171875 9.363281 -10.40625 8.78125 -10.40625 C 7.96875 -10.40625 7.378906 -10.082031 7.015625 -9.4375 C 6.648438 -8.789062 6.46875 -7.679688 6.46875 -6.109375 L 6.46875 0 L 1.65625 0 L 1.65625 -13.9375 L 5.296875 -13.9375 L 5.890625 -12.21875 L 6.171875 -12.21875 C 6.585938 -12.875 7.15625 -13.363281 7.875 -13.6875 C 8.601562 -14.019531 9.441406 -14.1875 10.390625 -14.1875 C 11.929688 -14.1875 13.128906 -13.738281 13.984375 -12.84375 C 14.835938 -11.945312 15.265625 -10.6875 15.265625 -9.0625 L 15.265625 0 Z M 10.453125 0 "/></g></g></g><g fill="#000000" fill-opacity="1"><g transform="translate(179.39636, 323.65951)"><g><path d="M 10.75 0 L 9.828125 -1.84375 L 9.734375 -1.84375 C 9.085938 -1.039062 8.425781 -0.488281 7.75 -0.1875 C 7.082031 0.101562 6.210938 0.25 5.140625 0.25 C 3.828125 0.25 2.789062 -0.140625 2.03125 -0.921875 C 1.28125 -1.710938 0.90625 -2.828125 0.90625 -4.265625 C 0.90625 -5.742188 1.421875 -6.84375 2.453125 -7.5625 C 3.492188 -8.289062 4.992188 -8.703125 6.953125 -8.796875 L 9.28125 -8.875 L 9.28125 -9.0625 C 9.28125 -10.21875 8.710938 -10.796875 7.578125 -10.796875 C 6.554688 -10.796875 5.265625 -10.453125 3.703125 -9.765625 L 2.3125 -12.9375 C 3.9375 -13.769531 5.988281 -14.1875 8.46875 -14.1875 C 10.257812 -14.1875 11.644531 -13.742188 12.625 -12.859375 C 13.601562 -11.972656 14.09375 -10.734375 14.09375 -9.140625 L 14.09375 0 Z M 7.1875 -3.15625 C 7.769531 -3.15625 8.265625 -3.335938 8.671875 -3.703125 C 9.085938 -4.078125 9.296875 -4.554688 9.296875 -5.140625 L 9.296875 -6.234375 L 8.203125 -6.171875 C 6.617188 -6.117188 5.828125 -5.539062 5.828125 -4.4375 C 5.828125 -3.582031 6.28125 -3.15625 7.1875 -3.15625 Z M 7.1875 -3.15625 "/></g></g></g><g fill="#000000" fill-opacity="1"><g transform="translate(195.097829, 323.65951)"><g><path d="M 8.484375 -3.5625 C 9.140625 -3.5625 9.914062 -3.71875 10.8125 -4.03125 L 10.8125 -0.53125 C 10.164062 -0.25 9.546875 -0.0507812 8.953125 0.0625 C 8.367188 0.1875 7.6875 0.25 6.90625 0.25 C 5.289062 0.25 4.125 -0.144531 3.40625 -0.9375 C 2.695312 -1.726562 2.34375 -2.945312 2.34375 -4.59375 L 2.34375 -10.34375 L 0.65625 -10.34375 L 0.65625 -12.296875 L 2.796875 -13.8125 L 4.03125 -16.734375 L 7.1875 -16.734375 L 7.1875 -13.9375 L 10.609375 -13.9375 L 10.609375 -10.34375 L 7.1875 -10.34375 L 7.1875 -4.90625 C 7.1875 -4.007812 7.617188 -3.5625 8.484375 -3.5625 Z M 8.484375 -3.5625 "/></g></g></g><g fill="#000000" fill-opacity="1"><g transform="translate(206.689352, 323.65951)"><g><path d="M 6.5 0 L 1.6875 0 L 1.6875 -13.9375 L 6.5 -13.9375 Z M 1.5625 -17.40625 C 1.5625 -18.132812 1.757812 -18.671875 2.15625 -19.015625 C 2.5625 -19.367188 3.210938 -19.546875 4.109375 -19.546875 C 5.003906 -19.546875 5.65625 -19.363281 6.0625 -19 C 6.476562 -18.644531 6.6875 -18.113281 6.6875 -17.40625 C 6.6875 -16 5.828125 -15.296875 4.109375 -15.296875 C 2.410156 -15.296875 1.5625 -16 1.5625 -17.40625 Z M 1.5625 -17.40625 "/></g></g></g><g fill="#000000" fill-opacity="1"><g transform="translate(214.884633, 323.65951)"><g><path d="M 10.453125 0 L 10.453125 -7.609375 C 10.453125 -8.535156 10.316406 -9.234375 10.046875 -9.703125 C 9.785156 -10.171875 9.363281 -10.40625 8.78125 -10.40625 C 7.96875 -10.40625 7.378906 -10.082031 7.015625 -9.4375 C 6.648438 -8.789062 6.46875 -7.679688 6.46875 -6.109375 L 6.46875 0 L 1.65625 0 L 1.65625 -13.9375 L 5.296875 -13.9375 L 5.890625 -12.21875 L 6.171875 -12.21875 C 6.585938 -12.875 7.15625 -13.363281 7.875 -13.6875 C 8.601562 -14.019531 9.441406 -14.1875 10.390625 -14.1875 C 11.929688 -14.1875 13.128906 -13.738281 13.984375 -12.84375 C 14.835938 -11.945312 15.265625 -10.6875 15.265625 -9.0625 L 15.265625 0 Z M 10.453125 0 "/></g></g></g><g fill="#000000" fill-opacity="1"><g transform="translate(231.767404, 323.65951)"><g><path d="M 14.8125 -13.9375 L 14.8125 -11.609375 L 12.90625 -10.921875 C 13.164062 -10.441406 13.296875 -9.882812 13.296875 -9.25 C 13.296875 -7.75 12.769531 -6.582031 11.71875 -5.75 C 10.664062 -4.925781 9.09375 -4.515625 7 -4.515625 C 6.488281 -4.515625 6.078125 -4.546875 5.765625 -4.609375 C 5.648438 -4.398438 5.59375 -4.203125 5.59375 -4.015625 C 5.59375 -3.773438 5.785156 -3.59375 6.171875 -3.46875 C 6.554688 -3.34375 7.0625 -3.28125 7.6875 -3.28125 L 10 -3.28125 C 13.125 -3.28125 14.6875 -1.960938 14.6875 0.671875 C 14.6875 2.367188 13.960938 3.6875 12.515625 4.625 C 11.066406 5.570312 9.035156 6.046875 6.421875 6.046875 C 4.441406 6.046875 2.914062 5.71875 1.84375 5.0625 C 0.78125 4.40625 0.25 3.457031 0.25 2.21875 C 0.25 0.550781 1.28125 -0.523438 3.34375 -1.015625 C 2.914062 -1.191406 2.546875 -1.476562 2.234375 -1.875 C 1.921875 -2.28125 1.765625 -2.679688 1.765625 -3.078125 C 1.765625 -3.515625 1.878906 -3.894531 2.109375 -4.21875 C 2.347656 -4.550781 2.847656 -4.953125 3.609375 -5.421875 C 2.878906 -5.734375 2.304688 -6.226562 1.890625 -6.90625 C 1.484375 -7.59375 1.28125 -8.425781 1.28125 -9.40625 C 1.28125 -10.914062 1.796875 -12.085938 2.828125 -12.921875 C 3.859375 -13.765625 5.335938 -14.1875 7.265625 -14.1875 C 7.515625 -14.1875 7.953125 -14.15625 8.578125 -14.09375 C 9.203125 -14.039062 9.660156 -13.988281 9.953125 -13.9375 Z M 4.3125 1.734375 C 4.3125 2.128906 4.523438 2.445312 4.953125 2.6875 C 5.378906 2.925781 5.945312 3.046875 6.65625 3.046875 C 7.820312 3.046875 8.753906 2.898438 9.453125 2.609375 C 10.160156 2.316406 10.515625 1.941406 10.515625 1.484375 C 10.515625 1.117188 10.300781 0.859375 9.875 0.703125 C 9.445312 0.554688 8.832031 0.484375 8.03125 0.484375 L 6.15625 0.484375 C 5.632812 0.484375 5.195312 0.601562 4.84375 0.84375 C 4.488281 1.082031 4.3125 1.378906 4.3125 1.734375 Z M 5.828125 -9.375 C 5.828125 -7.945312 6.320312 -7.234375 7.3125 -7.234375 C 7.769531 -7.234375 8.125 -7.410156 8.375 -7.765625 C 8.625 -8.117188 8.75 -8.648438 8.75 -9.359375 C 8.75 -10.796875 8.269531 -11.515625 7.3125 -11.515625 C 6.320312 -11.515625 5.828125 -10.800781 5.828125 -9.375 Z M 5.828125 -9.375 "/></g></g></g><g fill="#000000" fill-opacity="1"><g transform="translate(86.229458, 74.28095)"><g><path d="M 14.84375 0 L 11.53125 0 L 11.53125 -6.78125 L 5.3125 -6.78125 L 5.3125 0 L 1.984375 0 L 1.984375 -15.703125 L 5.3125 -15.703125 L 5.3125 -9.546875 L 11.53125 -9.546875 L 11.53125 -15.703125 L 14.84375 -15.703125 Z M 14.84375 0 "/></g></g></g><g fill="#000000" fill-opacity="1"><g transform="translate(103.059482, 74.28095)"><g><path d="M 6.6875 -9.90625 C 6 -9.90625 5.457031 -9.679688 5.0625 -9.234375 C 4.664062 -8.796875 4.441406 -8.175781 4.390625 -7.375 L 8.984375 -7.375 C 8.960938 -8.175781 8.75 -8.796875 8.34375 -9.234375 C 7.9375 -9.679688 7.382812 -9.90625 6.6875 -9.90625 Z M 7.15625 0.21875 C 5.21875 0.21875 3.703125 -0.3125 2.609375 -1.375 C 1.523438 -2.445312 0.984375 -3.960938 0.984375 -5.921875 C 0.984375 -7.929688 1.484375 -9.484375 2.484375 -10.578125 C 3.492188 -11.679688 4.890625 -12.234375 6.671875 -12.234375 C 8.367188 -12.234375 9.6875 -11.75 10.625 -10.78125 C 11.570312 -9.8125 12.046875 -8.476562 12.046875 -6.78125 L 12.046875 -5.1875 L 4.3125 -5.1875 C 4.34375 -4.257812 4.613281 -3.53125 5.125 -3 C 5.644531 -2.476562 6.375 -2.21875 7.3125 -2.21875 C 8.03125 -2.21875 8.710938 -2.289062 9.359375 -2.4375 C 10.003906 -2.59375 10.675781 -2.835938 11.375 -3.171875 L 11.375 -0.640625 C 10.800781 -0.347656 10.1875 -0.132812 9.53125 0 C 8.882812 0.144531 8.09375 0.21875 7.15625 0.21875 Z M 7.15625 0.21875 "/></g></g></g><g fill="#000000" fill-opacity="1"><g transform="translate(116.05522, 74.28095)"><g><path d="M 5 0 L 1.71875 0 L 1.71875 -16.71875 L 5 -16.71875 Z M 5 0 "/></g></g></g><g fill="#000000" fill-opacity="1"><g transform="translate(122.7679, 74.28095)"><g><path d="M 8.3125 0.21875 C 6.90625 0.21875 5.800781 -0.296875 5 -1.328125 L 4.828125 -1.328125 C 4.941406 -0.316406 5 0.265625 5 0.421875 L 5 5.28125 L 1.71875 5.28125 L 1.71875 -12.015625 L 4.390625 -12.015625 L 4.84375 -10.453125 L 5 -10.453125 C 5.757812 -11.640625 6.894531 -12.234375 8.40625 -12.234375 C 9.820312 -12.234375 10.929688 -11.6875 11.734375 -10.59375 C 12.535156 -9.5 12.9375 -7.976562 12.9375 -6.03125 C 12.9375 -4.75 12.75 -3.632812 12.375 -2.6875 C 12 -1.738281 11.460938 -1.015625 10.765625 -0.515625 C 10.066406 -0.0234375 9.25 0.21875 8.3125 0.21875 Z M 7.34375 -9.609375 C 6.539062 -9.609375 5.953125 -9.359375 5.578125 -8.859375 C 5.203125 -8.367188 5.007812 -7.550781 5 -6.40625 L 5 -6.046875 C 5 -4.753906 5.1875 -3.828125 5.5625 -3.265625 C 5.945312 -2.710938 6.554688 -2.4375 7.390625 -2.4375 C 8.859375 -2.4375 9.59375 -3.644531 9.59375 -6.0625 C 9.59375 -7.25 9.410156 -8.132812 9.046875 -8.71875 C 8.691406 -9.3125 8.125 -9.609375 7.34375 -9.609375 Z M 7.34375 -9.609375 "/></g></g></g><g fill="#000000" fill-opacity="1"><g transform="translate(136.687303, 74.28095)"><g/></g></g><g fill="#000000" fill-opacity="1"><g transform="translate(142.401131, 74.28095)"><g><path d="M 16.234375 -7.875 C 16.234375 -5.269531 15.585938 -3.269531 14.296875 -1.875 C 13.003906 -0.476562 11.15625 0.21875 8.75 0.21875 C 6.34375 0.21875 4.492188 -0.476562 3.203125 -1.875 C 1.921875 -3.269531 1.28125 -5.273438 1.28125 -7.890625 C 1.28125 -10.503906 1.925781 -12.5 3.21875 -13.875 C 4.507812 -15.257812 6.363281 -15.953125 8.78125 -15.953125 C 11.1875 -15.953125 13.03125 -15.253906 14.3125 -13.859375 C 15.59375 -12.472656 16.234375 -10.476562 16.234375 -7.875 Z M 4.765625 -7.875 C 4.765625 -6.125 5.097656 -4.800781 5.765625 -3.90625 C 6.429688 -3.019531 7.425781 -2.578125 8.75 -2.578125 C 11.40625 -2.578125 12.734375 -4.34375 12.734375 -7.875 C 12.734375 -11.414062 11.414062 -13.1875 8.78125 -13.1875 C 7.457031 -13.1875 6.457031 -12.738281 5.78125 -11.84375 C 5.101562 -10.945312 4.765625 -9.625 4.765625 -7.875 Z M 4.765625 -7.875 "/></g></g></g><g fill="#000000" fill-opacity="1"><g transform="translate(159.907787, 74.28095)"><g><path d="M 10.234375 0 L 9.78125 -1.53125 L 9.609375 -1.53125 C 9.265625 -0.976562 8.769531 -0.546875 8.125 -0.234375 C 7.476562 0.0664062 6.742188 0.21875 5.921875 0.21875 C 4.503906 0.21875 3.4375 -0.15625 2.71875 -0.90625 C 2.007812 -1.664062 1.65625 -2.753906 1.65625 -4.171875 L 1.65625 -12.015625 L 4.9375 -12.015625 L 4.9375 -5 C 4.9375 -4.132812 5.085938 -3.484375 5.390625 -3.046875 C 5.703125 -2.609375 6.191406 -2.390625 6.859375 -2.390625 C 7.773438 -2.390625 8.4375 -2.695312 8.84375 -3.3125 C 9.257812 -3.925781 9.46875 -4.941406 9.46875 -6.359375 L 9.46875 -12.015625 L 12.734375 -12.015625 L 12.734375 0 Z M 10.234375 0 "/></g></g></g><g fill="#000000" fill-opacity="1"><g transform="translate(174.364203, 74.28095)"><g><path d="M 8.421875 -12.234375 C 8.867188 -12.234375 9.238281 -12.203125 9.53125 -12.140625 L 9.28125 -9.0625 C 9.019531 -9.132812 8.695312 -9.171875 8.3125 -9.171875 C 7.269531 -9.171875 6.457031 -8.898438 5.875 -8.359375 C 5.289062 -7.828125 5 -7.078125 5 -6.109375 L 5 0 L 1.71875 0 L 1.71875 -12.015625 L 4.203125 -12.015625 L 4.6875 -9.984375 L 4.84375 -9.984375 C 5.21875 -10.660156 5.722656 -11.203125 6.359375 -11.609375 C 6.992188 -12.023438 7.679688 -12.234375 8.421875 -12.234375 Z M 8.421875 -12.234375 "/></g></g></g><g fill="#000000" fill-opacity="1"><g transform="translate(184.352663, 74.28095)"><g/></g></g><g fill="#000000" fill-opacity="1"><g transform="translate(190.066492, 74.28095)"><g><path d="M 8.640625 -13.15625 C 7.390625 -13.15625 6.421875 -12.679688 5.734375 -11.734375 C 5.046875 -10.796875 4.703125 -9.488281 4.703125 -7.8125 C 4.703125 -4.3125 6.015625 -2.5625 8.640625 -2.5625 C 9.742188 -2.5625 11.082031 -2.835938 12.65625 -3.390625 L 12.65625 -0.59375 C 11.363281 -0.0507812 9.925781 0.21875 8.34375 0.21875 C 6.050781 0.21875 4.300781 -0.472656 3.09375 -1.859375 C 1.882812 -3.242188 1.28125 -5.234375 1.28125 -7.828125 C 1.28125 -9.460938 1.578125 -10.894531 2.171875 -12.125 C 2.765625 -13.351562 3.617188 -14.296875 4.734375 -14.953125 C 5.847656 -15.609375 7.148438 -15.9375 8.640625 -15.9375 C 10.171875 -15.9375 11.707031 -15.566406 13.25 -14.828125 L 12.171875 -12.125 C 11.585938 -12.394531 10.992188 -12.632812 10.390625 -12.84375 C 9.796875 -13.050781 9.210938 -13.15625 8.640625 -13.15625 Z M 8.640625 -13.15625 "/></g></g></g><g fill="#000000" fill-opacity="1"><g transform="translate(204.082562, 74.28095)"><g><path d="M 9.34375 0 L 8.71875 -1.640625 L 8.625 -1.640625 C 8.070312 -0.941406 7.503906 -0.457031 6.921875 -0.1875 C 6.335938 0.0820312 5.578125 0.21875 4.640625 0.21875 C 3.484375 0.21875 2.570312 -0.109375 1.90625 -0.765625 C 1.25 -1.429688 0.921875 -2.375 0.921875 -3.59375 C 0.921875 -4.863281 1.363281 -5.800781 2.25 -6.40625 C 3.144531 -7.007812 4.492188 -7.34375 6.296875 -7.40625 L 8.375 -7.484375 L 8.375 -8 C 8.375 -9.21875 7.753906 -9.828125 6.515625 -9.828125 C 5.554688 -9.828125 4.425781 -9.535156 3.125 -8.953125 L 2.046875 -11.171875 C 3.421875 -11.890625 4.953125 -12.25 6.640625 -12.25 C 8.253906 -12.25 9.488281 -11.898438 10.34375 -11.203125 C 11.207031 -10.503906 11.640625 -9.4375 11.640625 -8 L 11.640625 0 Z M 8.375 -5.5625 L 7.109375 -5.515625 C 6.160156 -5.492188 5.453125 -5.320312 4.984375 -5 C 4.515625 -4.6875 4.28125 -4.207031 4.28125 -3.5625 C 4.28125 -2.644531 4.8125 -2.1875 5.875 -2.1875 C 6.632812 -2.1875 7.238281 -2.398438 7.6875 -2.828125 C 8.144531 -3.265625 8.375 -3.847656 8.375 -4.578125 Z M 8.375 -5.5625 "/></g></g></g><g fill="#000000" fill-opacity="1"><g transform="translate(217.368294, 74.28095)"><g><path d="M 10.234375 0 L 9.78125 -1.53125 L 9.609375 -1.53125 C 9.265625 -0.976562 8.769531 -0.546875 8.125 -0.234375 C 7.476562 0.0664062 6.742188 0.21875 5.921875 0.21875 C 4.503906 0.21875 3.4375 -0.15625 2.71875 -0.90625 C 2.007812 -1.664062 1.65625 -2.753906 1.65625 -4.171875 L 1.65625 -12.015625 L 4.9375 -12.015625 L 4.9375 -5 C 4.9375 -4.132812 5.085938 -3.484375 5.390625 -3.046875 C 5.703125 -2.609375 6.191406 -2.390625 6.859375 -2.390625 C 7.773438 -2.390625 8.4375 -2.695312 8.84375 -3.3125 C 9.257812 -3.925781 9.46875 -4.941406 9.46875 -6.359375 L 9.46875 -12.015625 L 12.734375 -12.015625 L 12.734375 0 Z M 10.234375 0 "/></g></g></g><g fill="#000000" fill-opacity="1"><g transform="translate(231.82471, 74.28095)"><g><path d="M 10.09375 -3.5625 C 10.09375 -2.332031 9.664062 -1.394531 8.8125 -0.75 C 7.957031 -0.101562 6.675781 0.21875 4.96875 0.21875 C 4.09375 0.21875 3.347656 0.15625 2.734375 0.03125 C 2.117188 -0.0820312 1.546875 -0.253906 1.015625 -0.484375 L 1.015625 -3.1875 C 1.617188 -2.90625 2.300781 -2.664062 3.0625 -2.46875 C 3.832031 -2.28125 4.503906 -2.1875 5.078125 -2.1875 C 6.265625 -2.1875 6.859375 -2.53125 6.859375 -3.21875 C 6.859375 -3.46875 6.78125 -3.671875 6.625 -3.828125 C 6.46875 -3.992188 6.195312 -4.175781 5.8125 -4.375 C 5.425781 -4.582031 4.910156 -4.828125 4.265625 -5.109375 C 3.335938 -5.492188 2.65625 -5.847656 2.21875 -6.171875 C 1.789062 -6.503906 1.476562 -6.882812 1.28125 -7.3125 C 1.082031 -7.738281 0.984375 -8.265625 0.984375 -8.890625 C 0.984375 -9.953125 1.394531 -10.773438 2.21875 -11.359375 C 3.050781 -11.941406 4.226562 -12.234375 5.75 -12.234375 C 7.195312 -12.234375 8.601562 -11.921875 9.96875 -11.296875 L 8.984375 -8.921875 C 8.378906 -9.179688 7.816406 -9.394531 7.296875 -9.5625 C 6.773438 -9.726562 6.238281 -9.8125 5.6875 -9.8125 C 4.726562 -9.8125 4.25 -9.550781 4.25 -9.03125 C 4.25 -8.726562 4.398438 -8.46875 4.703125 -8.25 C 5.015625 -8.039062 5.695312 -7.726562 6.75 -7.3125 C 7.695312 -6.925781 8.382812 -6.566406 8.8125 -6.234375 C 9.25 -5.910156 9.570312 -5.53125 9.78125 -5.09375 C 9.988281 -4.664062 10.09375 -4.15625 10.09375 -3.5625 Z M 10.09375 -3.5625 "/></g></g></g><g fill="#000000" fill-opacity="1"><g transform="translate(242.758314, 74.28095)"><g><path d="M 6.6875 -9.90625 C 6 -9.90625 5.457031 -9.679688 5.0625 -9.234375 C 4.664062 -8.796875 4.441406 -8.175781 4.390625 -7.375 L 8.984375 -7.375 C 8.960938 -8.175781 8.75 -8.796875 8.34375 -9.234375 C 7.9375 -9.679688 7.382812 -9.90625 6.6875 -9.90625 Z M 7.15625 0.21875 C 5.21875 0.21875 3.703125 -0.3125 2.609375 -1.375 C 1.523438 -2.445312 0.984375 -3.960938 0.984375 -5.921875 C 0.984375 -7.929688 1.484375 -9.484375 2.484375 -10.578125 C 3.492188 -11.679688 4.890625 -12.234375 6.671875 -12.234375 C 8.367188 -12.234375 9.6875 -11.75 10.625 -10.78125 C 11.570312 -9.8125 12.046875 -8.476562 12.046875 -6.78125 L 12.046875 -5.1875 L 4.3125 -5.1875 C 4.34375 -4.257812 4.613281 -3.53125 5.125 -3 C 5.644531 -2.476562 6.375 -2.21875 7.3125 -2.21875 C 8.03125 -2.21875 8.710938 -2.289062 9.359375 -2.4375 C 10.003906 -2.59375 10.675781 -2.835938 11.375 -3.171875 L 11.375 -0.640625 C 10.800781 -0.347656 10.1875 -0.132812 9.53125 0 C 8.882812 0.144531 8.09375 0.21875 7.15625 0.21875 Z M 7.15625 0.21875 "/></g></g></g><g fill="#000000" fill-opacity="1"><g transform="translate(255.754053, 74.28095)"><g/></g></g><g fill="#000000" fill-opacity="1"><g transform="translate(261.467881, 74.28095)"><g><path d="M 1.984375 -15.703125 L 6.859375 -15.703125 C 9.085938 -15.703125 10.703125 -15.382812 11.703125 -14.75 C 12.710938 -14.113281 13.21875 -13.109375 13.21875 -11.734375 C 13.21875 -10.796875 13 -10.023438 12.5625 -9.421875 C 12.125 -8.816406 11.539062 -8.457031 10.8125 -8.34375 L 10.8125 -8.234375 C 11.800781 -8.003906 12.515625 -7.582031 12.953125 -6.96875 C 13.398438 -6.363281 13.625 -5.5625 13.625 -4.5625 C 13.625 -3.125 13.101562 -2.003906 12.0625 -1.203125 C 11.03125 -0.398438 9.628906 0 7.859375 0 L 1.984375 0 Z M 5.3125 -9.484375 L 7.234375 -9.484375 C 8.140625 -9.484375 8.796875 -9.625 9.203125 -9.90625 C 9.609375 -10.1875 9.8125 -10.648438 9.8125 -11.296875 C 9.8125 -11.890625 9.585938 -12.316406 9.140625 -12.578125 C 8.703125 -12.847656 8.007812 -12.984375 7.0625 -12.984375 L 5.3125 -12.984375 Z M 5.3125 -6.84375 L 5.3125 -2.75 L 7.484375 -2.75 C 8.398438 -2.75 9.070312 -2.921875 9.5 -3.265625 C 9.9375 -3.617188 10.15625 -4.160156 10.15625 -4.890625 C 10.15625 -6.191406 9.226562 -6.84375 7.375 -6.84375 Z M 5.3125 -6.84375 "/></g></g></g><g fill="#000000" fill-opacity="1"><g transform="translate(276.246506, 74.28095)"><g><path d="M 0 -12.015625 L 3.59375 -12.015625 L 5.859375 -5.25 C 6.046875 -4.664062 6.175781 -3.972656 6.25 -3.171875 L 6.3125 -3.171875 C 6.394531 -3.910156 6.550781 -4.601562 6.78125 -5.25 L 9 -12.015625 L 12.515625 -12.015625 L 7.4375 1.53125 C 6.96875 2.789062 6.300781 3.726562 5.4375 4.34375 C 4.570312 4.96875 3.566406 5.28125 2.421875 5.28125 C 1.847656 5.28125 1.289062 5.222656 0.75 5.109375 L 0.75 2.5 C 1.144531 2.59375 1.578125 2.640625 2.046875 2.640625 C 2.617188 2.640625 3.125 2.460938 3.5625 2.109375 C 4 1.753906 4.335938 1.21875 4.578125 0.5 L 4.765625 -0.09375 Z M 0 -12.015625 "/></g></g></g><g fill="#000000" fill-opacity="1"><g transform="translate(60.940397, 105.030948)"><g><path d="M 11.25 -4.359375 C 11.25 -2.941406 10.738281 -1.820312 9.71875 -1 C 8.695312 -0.1875 7.273438 0.21875 5.453125 0.21875 C 3.773438 0.21875 2.296875 -0.0976562 1.015625 -0.734375 L 1.015625 -3.828125 C 2.066406 -3.347656 2.957031 -3.007812 3.6875 -2.8125 C 4.425781 -2.625 5.101562 -2.53125 5.71875 -2.53125 C 6.445312 -2.53125 7.003906 -2.671875 7.390625 -2.953125 C 7.785156 -3.234375 7.984375 -3.648438 7.984375 -4.203125 C 7.984375 -4.503906 7.894531 -4.773438 7.71875 -5.015625 C 7.550781 -5.253906 7.300781 -5.484375 6.96875 -5.703125 C 6.632812 -5.929688 5.957031 -6.289062 4.9375 -6.78125 C 3.96875 -7.226562 3.242188 -7.660156 2.765625 -8.078125 C 2.285156 -8.492188 1.898438 -8.976562 1.609375 -9.53125 C 1.328125 -10.082031 1.1875 -10.726562 1.1875 -11.46875 C 1.1875 -12.851562 1.65625 -13.941406 2.59375 -14.734375 C 3.539062 -15.535156 4.847656 -15.9375 6.515625 -15.9375 C 7.328125 -15.9375 8.101562 -15.835938 8.84375 -15.640625 C 9.582031 -15.441406 10.359375 -15.171875 11.171875 -14.828125 L 10.09375 -12.234375 C 9.257812 -12.578125 8.566406 -12.816406 8.015625 -12.953125 C 7.472656 -13.085938 6.9375 -13.15625 6.40625 -13.15625 C 5.769531 -13.15625 5.285156 -13.007812 4.953125 -12.71875 C 4.617188 -12.425781 4.453125 -12.039062 4.453125 -11.5625 C 4.453125 -11.269531 4.519531 -11.015625 4.65625 -10.796875 C 4.789062 -10.578125 5.003906 -10.363281 5.296875 -10.15625 C 5.597656 -9.957031 6.300781 -9.59375 7.40625 -9.0625 C 8.875 -8.363281 9.878906 -7.660156 10.421875 -6.953125 C 10.972656 -6.242188 11.25 -5.378906 11.25 -4.359375 Z M 11.25 -4.359375 "/></g></g></g><g fill="#000000" fill-opacity="1"><g transform="translate(73.055433, 105.030948)"><g><path d="M 10.234375 0 L 9.78125 -1.53125 L 9.609375 -1.53125 C 9.265625 -0.976562 8.769531 -0.546875 8.125 -0.234375 C 7.476562 0.0664062 6.742188 0.21875 5.921875 0.21875 C 4.503906 0.21875 3.4375 -0.15625 2.71875 -0.90625 C 2.007812 -1.664062 1.65625 -2.753906 1.65625 -4.171875 L 1.65625 -12.015625 L 4.9375 -12.015625 L 4.9375 -5 C 4.9375 -4.132812 5.085938 -3.484375 5.390625 -3.046875 C 5.703125 -2.609375 6.191406 -2.390625 6.859375 -2.390625 C 7.773438 -2.390625 8.4375 -2.695312 8.84375 -3.3125 C 9.257812 -3.925781 9.46875 -4.941406 9.46875 -6.359375 L 9.46875 -12.015625 L 12.734375 -12.015625 L 12.734375 0 Z M 10.234375 0 "/></g></g></g><g fill="#000000" fill-opacity="1"><g transform="translate(87.511849, 105.030948)"><g><path d="M 8.3125 0.21875 C 6.90625 0.21875 5.800781 -0.296875 5 -1.328125 L 4.828125 -1.328125 C 4.941406 -0.316406 5 0.265625 5 0.421875 L 5 5.28125 L 1.71875 5.28125 L 1.71875 -12.015625 L 4.390625 -12.015625 L 4.84375 -10.453125 L 5 -10.453125 C 5.757812 -11.640625 6.894531 -12.234375 8.40625 -12.234375 C 9.820312 -12.234375 10.929688 -11.6875 11.734375 -10.59375 C 12.535156 -9.5 12.9375 -7.976562 12.9375 -6.03125 C 12.9375 -4.75 12.75 -3.632812 12.375 -2.6875 C 12 -1.738281 11.460938 -1.015625 10.765625 -0.515625 C 10.066406 -0.0234375 9.25 0.21875 8.3125 0.21875 Z M 7.34375 -9.609375 C 6.539062 -9.609375 5.953125 -9.359375 5.578125 -8.859375 C 5.203125 -8.367188 5.007812 -7.550781 5 -6.40625 L 5 -6.046875 C 5 -4.753906 5.1875 -3.828125 5.5625 -3.265625 C 5.945312 -2.710938 6.554688 -2.4375 7.390625 -2.4375 C 8.859375 -2.4375 9.59375 -3.644531 9.59375 -6.0625 C 9.59375 -7.25 9.410156 -8.132812 9.046875 -8.71875 C 8.691406 -9.3125 8.125 -9.609375 7.34375 -9.609375 Z M 7.34375 -9.609375 "/></g></g></g><g fill="#000000" fill-opacity="1"><g transform="translate(101.431251, 105.030948)"><g><path d="M 8.3125 0.21875 C 6.90625 0.21875 5.800781 -0.296875 5 -1.328125 L 4.828125 -1.328125 C 4.941406 -0.316406 5 0.265625 5 0.421875 L 5 5.28125 L 1.71875 5.28125 L 1.71875 -12.015625 L 4.390625 -12.015625 L 4.84375 -10.453125 L 5 -10.453125 C 5.757812 -11.640625 6.894531 -12.234375 8.40625 -12.234375 C 9.820312 -12.234375 10.929688 -11.6875 11.734375 -10.59375 C 12.535156 -9.5 12.9375 -7.976562 12.9375 -6.03125 C 12.9375 -4.75 12.75 -3.632812 12.375 -2.6875 C 12 -1.738281 11.460938 -1.015625 10.765625 -0.515625 C 10.066406 -0.0234375 9.25 0.21875 8.3125 0.21875 Z M 7.34375 -9.609375 C 6.539062 -9.609375 5.953125 -9.359375 5.578125 -8.859375 C 5.203125 -8.367188 5.007812 -7.550781 5 -6.40625 L 5 -6.046875 C 5 -4.753906 5.1875 -3.828125 5.5625 -3.265625 C 5.945312 -2.710938 6.554688 -2.4375 7.390625 -2.4375 C 8.859375 -2.4375 9.59375 -3.644531 9.59375 -6.0625 C 9.59375 -7.25 9.410156 -8.132812 9.046875 -8.71875 C 8.691406 -9.3125 8.125 -9.609375 7.34375 -9.609375 Z M 7.34375 -9.609375 "/></g></g></g><g fill="#000000" fill-opacity="1"><g transform="translate(115.350653, 105.030948)"><g><path d="M 4.328125 -6.03125 C 4.328125 -4.84375 4.519531 -3.941406 4.90625 -3.328125 C 5.300781 -2.722656 5.941406 -2.421875 6.828125 -2.421875 C 7.691406 -2.421875 8.316406 -2.722656 8.703125 -3.328125 C 9.085938 -3.929688 9.28125 -4.832031 9.28125 -6.03125 C 9.28125 -7.21875 9.085938 -8.109375 8.703125 -8.703125 C 8.316406 -9.296875 7.679688 -9.59375 6.796875 -9.59375 C 5.921875 -9.59375 5.289062 -9.296875 4.90625 -8.703125 C 4.519531 -8.117188 4.328125 -7.226562 4.328125 -6.03125 Z M 12.640625 -6.03125 C 12.640625 -4.070312 12.125 -2.539062 11.09375 -1.4375 C 10.0625 -0.332031 8.625 0.21875 6.78125 0.21875 C 5.625 0.21875 4.601562 -0.03125 3.71875 -0.53125 C 2.84375 -1.039062 2.164062 -1.769531 1.6875 -2.71875 C 1.21875 -3.664062 0.984375 -4.769531 0.984375 -6.03125 C 0.984375 -7.988281 1.492188 -9.507812 2.515625 -10.59375 C 3.546875 -11.6875 4.988281 -12.234375 6.84375 -12.234375 C 8 -12.234375 9.015625 -11.984375 9.890625 -11.484375 C 10.773438 -10.984375 11.453125 -10.265625 11.921875 -9.328125 C 12.398438 -8.390625 12.640625 -7.289062 12.640625 -6.03125 Z M 12.640625 -6.03125 "/></g></g></g><g fill="#000000" fill-opacity="1"><g transform="translate(128.969328, 105.030948)"><g><path d="M 8.421875 -12.234375 C 8.867188 -12.234375 9.238281 -12.203125 9.53125 -12.140625 L 9.28125 -9.0625 C 9.019531 -9.132812 8.695312 -9.171875 8.3125 -9.171875 C 7.269531 -9.171875 6.457031 -8.898438 5.875 -8.359375 C 5.289062 -7.828125 5 -7.078125 5 -6.109375 L 5 0 L 1.71875 0 L 1.71875 -12.015625 L 4.203125 -12.015625 L 4.6875 -9.984375 L 4.84375 -9.984375 C 5.21875 -10.660156 5.722656 -11.203125 6.359375 -11.609375 C 6.992188 -12.023438 7.679688 -12.234375 8.421875 -12.234375 Z M 8.421875 -12.234375 "/></g></g></g><g fill="#000000" fill-opacity="1"><g transform="translate(138.957788, 105.030948)"><g><path d="M 6.78125 -2.390625 C 7.351562 -2.390625 8.039062 -2.515625 8.84375 -2.765625 L 8.84375 -0.328125 C 8.019531 0.0351562 7.015625 0.21875 5.828125 0.21875 C 4.523438 0.21875 3.570312 -0.109375 2.96875 -0.765625 C 2.375 -1.429688 2.078125 -2.429688 2.078125 -3.765625 L 2.078125 -9.546875 L 0.5 -9.546875 L 0.5 -10.9375 L 2.3125 -12.03125 L 3.25 -14.5625 L 5.34375 -14.5625 L 5.34375 -12.015625 L 8.71875 -12.015625 L 8.71875 -9.546875 L 5.34375 -9.546875 L 5.34375 -3.765625 C 5.34375 -3.296875 5.472656 -2.945312 5.734375 -2.71875 C 6.003906 -2.5 6.351562 -2.390625 6.78125 -2.390625 Z M 6.78125 -2.390625 "/></g></g></g><g fill="#000000" fill-opacity="1"><g transform="translate(148.505902, 105.030948)"><g><path d="M 1.578125 -15.109375 C 1.578125 -16.179688 2.171875 -16.71875 3.359375 -16.71875 C 4.546875 -16.71875 5.140625 -16.179688 5.140625 -15.109375 C 5.140625 -14.609375 4.988281 -14.210938 4.6875 -13.921875 C 4.394531 -13.640625 3.953125 -13.5 3.359375 -13.5 C 2.171875 -13.5 1.578125 -14.035156 1.578125 -15.109375 Z M 5 0 L 1.71875 0 L 1.71875 -12.015625 L 5 -12.015625 Z M 5 0 "/></g></g></g><g fill="#000000" fill-opacity="1"><g transform="translate(155.218582, 105.030948)"><g><path d="M 12.8125 0 L 9.53125 0 L 9.53125 -7.015625 C 9.53125 -7.878906 9.375 -8.523438 9.0625 -8.953125 C 8.757812 -9.390625 8.269531 -9.609375 7.59375 -9.609375 C 6.675781 -9.609375 6.015625 -9.300781 5.609375 -8.6875 C 5.203125 -8.082031 5 -7.070312 5 -5.65625 L 5 0 L 1.71875 0 L 1.71875 -12.015625 L 4.21875 -12.015625 L 4.65625 -10.46875 L 4.84375 -10.46875 C 5.207031 -11.050781 5.707031 -11.488281 6.34375 -11.78125 C 6.988281 -12.082031 7.722656 -12.234375 8.546875 -12.234375 C 9.941406 -12.234375 11 -11.851562 11.71875 -11.09375 C 12.445312 -10.34375 12.8125 -9.253906 12.8125 -7.828125 Z M 12.8125 0 "/></g></g></g><g fill="#000000" fill-opacity="1"><g transform="translate(169.674998, 105.030948)"><g><path d="M 12.171875 -12.015625 L 12.171875 -10.34375 L 10.296875 -9.859375 C 10.640625 -9.328125 10.8125 -8.726562 10.8125 -8.0625 C 10.8125 -6.769531 10.359375 -5.765625 9.453125 -5.046875 C 8.554688 -4.328125 7.3125 -3.96875 5.71875 -3.96875 L 5.125 -4 L 4.640625 -4.046875 C 4.304688 -3.785156 4.140625 -3.5 4.140625 -3.1875 C 4.140625 -2.71875 4.738281 -2.484375 5.9375 -2.484375 L 7.984375 -2.484375 C 9.296875 -2.484375 10.296875 -2.195312 10.984375 -1.625 C 11.679688 -1.0625 12.03125 -0.234375 12.03125 0.859375 C 12.03125 2.265625 11.441406 3.351562 10.265625 4.125 C 9.097656 4.894531 7.421875 5.28125 5.234375 5.28125 C 3.554688 5.28125 2.273438 4.988281 1.390625 4.40625 C 0.503906 3.820312 0.0625 3.003906 0.0625 1.953125 C 0.0625 1.234375 0.285156 0.628906 0.734375 0.140625 C 1.191406 -0.347656 1.859375 -0.695312 2.734375 -0.90625 C 2.390625 -1.050781 2.09375 -1.285156 1.84375 -1.609375 C 1.59375 -1.929688 1.46875 -2.273438 1.46875 -2.640625 C 1.46875 -3.097656 1.597656 -3.476562 1.859375 -3.78125 C 2.128906 -4.09375 2.515625 -4.394531 3.015625 -4.6875 C 2.390625 -4.957031 1.890625 -5.390625 1.515625 -5.984375 C 1.148438 -6.585938 0.96875 -7.300781 0.96875 -8.125 C 0.96875 -9.4375 1.394531 -10.445312 2.25 -11.15625 C 3.101562 -11.875 4.316406 -12.234375 5.890625 -12.234375 C 6.234375 -12.234375 6.632812 -12.203125 7.09375 -12.140625 C 7.550781 -12.078125 7.847656 -12.035156 7.984375 -12.015625 Z M 2.90625 1.703125 C 2.90625 2.148438 3.117188 2.5 3.546875 2.75 C 3.984375 3.007812 4.59375 3.140625 5.375 3.140625 C 6.550781 3.140625 7.46875 2.976562 8.125 2.65625 C 8.789062 2.34375 9.125 1.90625 9.125 1.34375 C 9.125 0.894531 8.925781 0.582031 8.53125 0.40625 C 8.144531 0.238281 7.539062 0.15625 6.71875 0.15625 L 5.015625 0.15625 C 4.410156 0.15625 3.90625 0.296875 3.5 0.578125 C 3.101562 0.859375 2.90625 1.234375 2.90625 1.703125 Z M 4.09375 -8.078125 C 4.09375 -7.421875 4.238281 -6.90625 4.53125 -6.53125 C 4.832031 -6.15625 5.285156 -5.96875 5.890625 -5.96875 C 6.515625 -5.96875 6.96875 -6.15625 7.25 -6.53125 C 7.539062 -6.90625 7.6875 -7.421875 7.6875 -8.078125 C 7.6875 -9.523438 7.085938 -10.25 5.890625 -10.25 C 4.691406 -10.25 4.09375 -9.523438 4.09375 -8.078125 Z M 4.09375 -8.078125 "/></g></g></g><g fill="#000000" fill-opacity="1"><g transform="translate(182.101507, 105.030948)"><g/></g></g><g fill="#000000" fill-opacity="1"><g transform="translate(187.815336, 105.030948)"><g><path d="M 6.78125 -2.390625 C 7.351562 -2.390625 8.039062 -2.515625 8.84375 -2.765625 L 8.84375 -0.328125 C 8.019531 0.0351562 7.015625 0.21875 5.828125 0.21875 C 4.523438 0.21875 3.570312 -0.109375 2.96875 -0.765625 C 2.375 -1.429688 2.078125 -2.429688 2.078125 -3.765625 L 2.078125 -9.546875 L 0.5 -9.546875 L 0.5 -10.9375 L 2.3125 -12.03125 L 3.25 -14.5625 L 5.34375 -14.5625 L 5.34375 -12.015625 L 8.71875 -12.015625 L 8.71875 -9.546875 L 5.34375 -9.546875 L 5.34375 -3.765625 C 5.34375 -3.296875 5.472656 -2.945312 5.734375 -2.71875 C 6.003906 -2.5 6.351562 -2.390625 6.78125 -2.390625 Z M 6.78125 -2.390625 "/></g></g></g><g fill="#000000" fill-opacity="1"><g transform="translate(197.36345, 105.030948)"><g><path d="M 12.8125 0 L 9.53125 0 L 9.53125 -7.015625 C 9.53125 -8.742188 8.882812 -9.609375 7.59375 -9.609375 C 6.675781 -9.609375 6.015625 -9.296875 5.609375 -8.671875 C 5.203125 -8.054688 5 -7.050781 5 -5.65625 L 5 0 L 1.71875 0 L 1.71875 -16.71875 L 5 -16.71875 L 5 -13.3125 C 5 -13.039062 4.972656 -12.414062 4.921875 -11.4375 L 4.84375 -10.46875 L 5.015625 -10.46875 C 5.742188 -11.644531 6.90625 -12.234375 8.5 -12.234375 C 9.90625 -12.234375 10.972656 -11.851562 11.703125 -11.09375 C 12.441406 -10.332031 12.8125 -9.242188 12.8125 -7.828125 Z M 12.8125 0 "/></g></g></g><g fill="#000000" fill-opacity="1"><g transform="translate(211.819867, 105.030948)"><g><path d="M 6.6875 -9.90625 C 6 -9.90625 5.457031 -9.679688 5.0625 -9.234375 C 4.664062 -8.796875 4.441406 -8.175781 4.390625 -7.375 L 8.984375 -7.375 C 8.960938 -8.175781 8.75 -8.796875 8.34375 -9.234375 C 7.9375 -9.679688 7.382812 -9.90625 6.6875 -9.90625 Z M 7.15625 0.21875 C 5.21875 0.21875 3.703125 -0.3125 2.609375 -1.375 C 1.523438 -2.445312 0.984375 -3.960938 0.984375 -5.921875 C 0.984375 -7.929688 1.484375 -9.484375 2.484375 -10.578125 C 3.492188 -11.679688 4.890625 -12.234375 6.671875 -12.234375 C 8.367188 -12.234375 9.6875 -11.75 10.625 -10.78125 C 11.570312 -9.8125 12.046875 -8.476562 12.046875 -6.78125 L 12.046875 -5.1875 L 4.3125 -5.1875 C 4.34375 -4.257812 4.613281 -3.53125 5.125 -3 C 5.644531 -2.476562 6.375 -2.21875 7.3125 -2.21875 C 8.03125 -2.21875 8.710938 -2.289062 9.359375 -2.4375 C 10.003906 -2.59375 10.675781 -2.835938 11.375 -3.171875 L 11.375 -0.640625 C 10.800781 -0.347656 10.1875 -0.132812 9.53125 0 C 8.882812 0.144531 8.09375 0.21875 7.15625 0.21875 Z M 7.15625 0.21875 "/></g></g></g><g fill="#000000" fill-opacity="1"><g transform="translate(224.815605, 105.030948)"><g/></g></g><g fill="#000000" fill-opacity="1"><g transform="translate(230.529433, 105.030948)"><g><path d="M 6.59375 0.21875 C 2.851562 0.21875 0.984375 -1.832031 0.984375 -5.9375 C 0.984375 -7.976562 1.492188 -9.535156 2.515625 -10.609375 C 3.535156 -11.691406 4.992188 -12.234375 6.890625 -12.234375 C 8.273438 -12.234375 9.519531 -11.960938 10.625 -11.421875 L 9.65625 -8.890625 C 9.144531 -9.097656 8.664062 -9.265625 8.21875 -9.390625 C 7.769531 -9.523438 7.328125 -9.59375 6.890625 -9.59375 C 5.179688 -9.59375 4.328125 -8.382812 4.328125 -5.96875 C 4.328125 -3.613281 5.179688 -2.4375 6.890625 -2.4375 C 7.515625 -2.4375 8.09375 -2.519531 8.625 -2.6875 C 9.164062 -2.851562 9.707031 -3.117188 10.25 -3.484375 L 10.25 -0.671875 C 9.71875 -0.335938 9.179688 -0.109375 8.640625 0.015625 C 8.097656 0.148438 7.414062 0.21875 6.59375 0.21875 Z M 6.59375 0.21875 "/></g></g></g><g fill="#000000" fill-opacity="1"><g transform="translate(241.838953, 105.030948)"><g><path d="M 12.8125 0 L 9.53125 0 L 9.53125 -7.015625 C 9.53125 -8.742188 8.882812 -9.609375 7.59375 -9.609375 C 6.675781 -9.609375 6.015625 -9.296875 5.609375 -8.671875 C 5.203125 -8.054688 5 -7.050781 5 -5.65625 L 5 0 L 1.71875 0 L 1.71875 -16.71875 L 5 -16.71875 L 5 -13.3125 C 5 -13.039062 4.972656 -12.414062 4.921875 -11.4375 L 4.84375 -10.46875 L 5.015625 -10.46875 C 5.742188 -11.644531 6.90625 -12.234375 8.5 -12.234375 C 9.90625 -12.234375 10.972656 -11.851562 11.703125 -11.09375 C 12.441406 -10.332031 12.8125 -9.242188 12.8125 -7.828125 Z M 12.8125 0 "/></g></g></g><g fill="#000000" fill-opacity="1"><g transform="translate(256.295381, 105.030948)"><g><path d="M 9.34375 0 L 8.71875 -1.640625 L 8.625 -1.640625 C 8.070312 -0.941406 7.503906 -0.457031 6.921875 -0.1875 C 6.335938 0.0820312 5.578125 0.21875 4.640625 0.21875 C 3.484375 0.21875 2.570312 -0.109375 1.90625 -0.765625 C 1.25 -1.429688 0.921875 -2.375 0.921875 -3.59375 C 0.921875 -4.863281 1.363281 -5.800781 2.25 -6.40625 C 3.144531 -7.007812 4.492188 -7.34375 6.296875 -7.40625 L 8.375 -7.484375 L 8.375 -8 C 8.375 -9.21875 7.753906 -9.828125 6.515625 -9.828125 C 5.554688 -9.828125 4.425781 -9.535156 3.125 -8.953125 L 2.046875 -11.171875 C 3.421875 -11.890625 4.953125 -12.25 6.640625 -12.25 C 8.253906 -12.25 9.488281 -11.898438 10.34375 -11.203125 C 11.207031 -10.503906 11.640625 -9.4375 11.640625 -8 L 11.640625 0 Z M 8.375 -5.5625 L 7.109375 -5.515625 C 6.160156 -5.492188 5.453125 -5.320312 4.984375 -5 C 4.515625 -4.6875 4.28125 -4.207031 4.28125 -3.5625 C 4.28125 -2.644531 4.8125 -2.1875 5.875 -2.1875 C 6.632812 -2.1875 7.238281 -2.398438 7.6875 -2.828125 C 8.144531 -3.265625 8.375 -3.847656 8.375 -4.578125 Z M 8.375 -5.5625 "/></g></g></g><g fill="#000000" fill-opacity="1"><g transform="translate(269.581101, 105.030948)"><g><path d="M 8.421875 -12.234375 C 8.867188 -12.234375 9.238281 -12.203125 9.53125 -12.140625 L 9.28125 -9.0625 C 9.019531 -9.132812 8.695312 -9.171875 8.3125 -9.171875 C 7.269531 -9.171875 6.457031 -8.898438 5.875 -8.359375 C 5.289062 -7.828125 5 -7.078125 5 -6.109375 L 5 0 L 1.71875 0 L 1.71875 -12.015625 L 4.203125 -12.015625 L 4.6875 -9.984375 L 4.84375 -9.984375 C 5.21875 -10.660156 5.722656 -11.203125 6.359375 -11.609375 C 6.992188 -12.023438 7.679688 -12.234375 8.421875 -12.234375 Z M 8.421875 -12.234375 "/></g></g></g><g fill="#000000" fill-opacity="1"><g transform="translate(279.569549, 105.030948)"><g><path d="M 1.578125 -15.109375 C 1.578125 -16.179688 2.171875 -16.71875 3.359375 -16.71875 C 4.546875 -16.71875 5.140625 -16.179688 5.140625 -15.109375 C 5.140625 -14.609375 4.988281 -14.210938 4.6875 -13.921875 C 4.394531 -13.640625 3.953125 -13.5 3.359375 -13.5 C 2.171875 -13.5 1.578125 -14.035156 1.578125 -15.109375 Z M 5 0 L 1.71875 0 L 1.71875 -12.015625 L 5 -12.015625 Z M 5 0 "/></g></g></g><g fill="#000000" fill-opacity="1"><g transform="translate(286.282241, 105.030948)"><g><path d="M 6.78125 -2.390625 C 7.351562 -2.390625 8.039062 -2.515625 8.84375 -2.765625 L 8.84375 -0.328125 C 8.019531 0.0351562 7.015625 0.21875 5.828125 0.21875 C 4.523438 0.21875 3.570312 -0.109375 2.96875 -0.765625 C 2.375 -1.429688 2.078125 -2.429688 2.078125 -3.765625 L 2.078125 -9.546875 L 0.5 -9.546875 L 0.5 -10.9375 L 2.3125 -12.03125 L 3.25 -14.5625 L 5.34375 -14.5625 L 5.34375 -12.015625 L 8.71875 -12.015625 L 8.71875 -9.546875 L 5.34375 -9.546875 L 5.34375 -3.765625 C 5.34375 -3.296875 5.472656 -2.945312 5.734375 -2.71875 C 6.003906 -2.5 6.351562 -2.390625 6.78125 -2.390625 Z M 6.78125 -2.390625 "/></g></g></g><g fill="#000000" fill-opacity="1"><g transform="translate(295.830366, 105.030948)"><g><path d="M 0 -12.015625 L 3.59375 -12.015625 L 5.859375 -5.25 C 6.046875 -4.664062 6.175781 -3.972656 6.25 -3.171875 L 6.3125 -3.171875 C 6.394531 -3.910156 6.550781 -4.601562 6.78125 -5.25 L 9 -12.015625 L 12.515625 -12.015625 L 7.4375 1.53125 C 6.96875 2.789062 6.300781 3.726562 5.4375 4.34375 C 4.570312 4.96875 3.566406 5.28125 2.421875 5.28125 C 1.847656 5.28125 1.289062 5.222656 0.75 5.109375 L 0.75 2.5 C 1.144531 2.59375 1.578125 2.640625 2.046875 2.640625 C 2.617188 2.640625 3.125 2.460938 3.5625 2.109375 C 4 1.753906 4.335938 1.21875 4.578125 0.5 L 4.765625 -0.09375 Z M 0 -12.015625 "/></g></g></g><g fill="#000000" fill-opacity="1"><g transform="translate(308.334912, 105.030948)"><g/></g></g></svg>